#!OML:ASF F:\VICON\USERDATA\INSTALL\rory3\rory3.ASF
:FULLY-SPECIFIED
:DEGREES
417
root -7.04106 17.8544 11.1271 -82.7659 -93.2703 78.5099
lowerback 12.3905 2.11812 4.28751
upperback 1.37215 3.39176 1.23424
thorax -5.32409 1.55715 -1.67796
lowerneck -20.1448 -6.1413 -12.019
upperneck 27.8615 -7.46575 7.43453
head 13.5425 -3.70362 3.60557
rclavicle 9.96408e-015 7.55382e-015
rhumerus -31.4981 -10.5405 -80.8454
rradius 35.0278
rwrist 3.59094
rhand -15.1205 10.5547
rfingers 7.12502
rthumb 11.0485 -19.1345
lclavicle 9.96408e-015 7.55382e-015
lhumerus -37.0653 9.01694 80.4898
lradius 29.6395
lwrist -7.02416
lhand -17.2078 26.0968
lfingers 7.12502
lthumb 9.03487 55.8833
rfemur -1.21389 -2.95515 28.5178
rtibia 23.3634
rfoot -15.0074 1.48383
rtoes 16.3287
lfemur -19.087 -0.0334034 -15.1187
ltibia 48.2878
lfoot -5.37958 -0.550448
ltoes -12.0828
418
root -7.15639 17.8468 11.1271 -83.7814 -93.4561 79.5797
lowerback 12.2988 2.08911 4.54107
upperback 1.42016 3.37948 1.25464
thorax -5.20964 1.54879 -1.79066
lowerneck -20.2703 -6.13062 -12.0179
upperneck 27.7834 -7.43514 7.47877
head 13.5342 -3.67797 3.62591
rclavicle 2.08475e-014 4.77083e-015
rhumerus -31.2952 -10.2802 -80.9597
rradius 35.0937
rwrist 3.53216
rhand -15.3086 10.5482
rfingers 7.12502
rthumb 10.8671 -19.1506
lclavicle 2.08475e-014 4.77083e-015
lhumerus -36.9356 8.81263 80.6421
lradius 29.8294
lwrist -6.98166
lhand -17.3914 26.3798
lfingers 7.12502
lthumb 8.85769 56.1739
rfemur -0.758435 -3.14665 28.6975
rtibia 23.1814
rfoot -15.2839 1.58056
rtoes 16.0906
lfemur -19.3973 -0.189593 -14.9036
ltibia 46.4629
lfoot -5.5578 0.224897
ltoes -11.7137
419
root -7.27063 17.8421 11.1244 -84.1611 -93.6414 80.0615
lowerback 12.2495 2.09512 4.74392
upperback 1.39028 3.41489 1.29078
thorax -5.20203 1.56209 -1.87012
lowerneck -20.3438 -6.14751 -11.9843
upperneck 27.7994 -7.42969 7.38432
head 13.5498 -3.68198 3.58239
rclavicle 3.85145e-016 7.95139e-015
rhumerus -31.1985 -9.82091 -81.0725
rradius 35.1735
rwrist 3.18059
rhand -15.3722 10.3351
rfingers 7.12502
rthumb 10.8057 -19.3669
lclavicle 3.85145e-016 7.95139e-015
lhumerus -36.8607 8.71522 80.7666
lradius 29.9509
lwrist -7.16951
lhand -17.6616 26.204
lfingers 7.12502
lthumb 8.59695 56.009
rfemur -0.332005 -2.97196 28.9508
rtibia 22.9543
rfoot -15.5016 1.29868
rtoes 15.588
lfemur -19.7093 -0.291767 -14.6842
ltibia 44.488
lfoot -5.59028 0.949356
ltoes -13.8593
420
root -7.38233 17.8459 11.1172 -85.2857 -93.4668 81.2749
lowerback 12.3116 2.11249 4.5657
upperback 1.31854 3.41993 1.21931
thorax -5.31806 1.56493 -1.8512
lowerneck -20.3673 -6.1772 -11.9473
upperneck 27.797 -7.45848 7.31453
head 13.5524 -3.69852 3.54205
rclavicle 3.21658e-014 -2.18663e-015
rhumerus -31.1133 -9.49712 -81.1968
rradius 35.1431
rwrist 2.97114
rhand -15.6897 10.1151
rfingers 7.12502
rthumb 10.4994 -19.6027
lclavicle 3.21658e-014 -2.18663e-015
lhumerus -36.8637 8.55698 80.8767
lradius 30.1538
lwrist -7.11624
lhand -17.8969 26.0874
lfingers 7.12502
lthumb 8.36988 55.9016
rfemur 0.119258 -2.54773 28.8852
rtibia 22.7148
rfoot -15.7402 0.774759
rtoes 15.9082
lfemur -19.9614 -0.552674 -14.8202
ltibia 42.3644
lfoot -5.52946 1.48643
ltoes -14.7189
421
root -7.49288 17.8502 11.1089 -86.0701 -93.2096 82.1555
lowerback 12.3482 2.12387 4.32917
upperback 1.26999 3.40235 1.07459
thorax -5.39565 1.55902 -1.87107
lowerneck -20.3346 -6.188 -12.0038
upperneck 27.6641 -7.49599 7.47257
head 13.5043 -3.69771 3.60619
rclavicle -4.31363e-014 1.39149e-015
rhumerus -30.9999 -9.45594 -81.3419
rradius 35.1294
rwrist 2.8911
rhand -16.0563 10.0418
rfingers 7.12502
rthumb 10.1458 -19.6936
lclavicle -4.31363e-014 1.39149e-015
lhumerus -36.8276 8.26358 80.9116
lradius 30.3381
lwrist -6.97822
lhand -18.0621 25.9456
lfingers 7.12502
lthumb 8.21036 55.7661
rfemur 0.530246 -2.38551 28.6768
rtibia 22.5099
rfoot -15.9844 0.545263
rtoes 16.4148
lfemur -20.109 -1.01814 -15.0139
ltibia 40.0814
lfoot -5.33068 2.05777
ltoes -12.9246
422
root -7.60448 17.8527 11.1011 -81.9801 -93.2341 78.2522
lowerback 12.2597 2.21433 4.2809
upperback 1.2361 3.51101 1.0176
thorax -5.37494 1.61404 -1.9178
lowerneck -20.4258 -6.1875 -11.9349
upperneck 27.5602 -7.49213 7.47077
head 13.4758 -3.68304 3.59134
rclavicle 2.82523e-014 1.59028e-015
rhumerus -30.8705 -9.62725 -81.3503
rradius 35.1356
rwrist 3.05853
rhand -16.0171 10.3024
rfingers 7.12502
rthumb 10.1837 -19.4311
lclavicle 2.82523e-014 1.59028e-015
lhumerus -36.6938 8.19122 80.9023
lradius 30.4118
lwrist -7.22113
lhand -18.0931 26.0223
lfingers 7.12502
lthumb 8.18045 55.844
rfemur 0.860358 -2.24154 28.6876
rtibia 22.337
rfoot -16.2464 0.592258
rtoes 16.5989
lfemur -20.2082 -1.24099 -14.8965
ltibia 37.6864
lfoot -5.055 2.59891
ltoes -10.8752
423
root -7.71977 17.8544 11.0953 -77.2673 -93.2794 73.726
lowerback 12.1494 2.32432 4.19924
upperback 1.18815 3.64474 1.03485
thorax -5.36246 1.68235 -1.87116
lowerneck -20.5235 -6.19134 -12.0053
upperneck 27.5388 -7.43916 7.42864
head 13.4826 -3.66871 3.59449
rclavicle -2.18415e-014 -1.96797e-014
rhumerus -30.7724 -9.54246 -81.2551
rradius 35.1275
rwrist 3.14116
rhand -15.9931 10.3984
rfingers 7.12502
rthumb 10.2068 -19.334
lclavicle -2.18415e-014 -1.96797e-014
lhumerus -36.6211 8.20255 81.0419
lradius 30.4664
lwrist -7.36661
lhand -17.8342 25.9207
lfingers 7.12502
lthumb 8.43037 55.7325
rfemur 1.2008 -1.81877 28.7085
rtibia 22.1507
rfoot -16.4566 0.584899
rtoes 17.7702
lfemur -20.2517 -1.37194 -14.8096
ltibia 35.2471
lfoot -4.71228 3.05571
ltoes -10.9486
424
root -7.83163 17.8453 11.0961 -74.2852 -93.2106 70.9763
lowerback 12.0418 2.34757 4.07958
upperback 1.11506 3.65853 1.01288
thorax -5.38504 1.69154 -1.82632
lowerneck -20.6844 -6.16799 -12.072
upperneck 27.6153 -7.34859 7.38468
head 13.5388 -3.63889 3.60458
rclavicle -1.07095e-014 1.19271e-015
rhumerus -30.5815 -9.28426 -81.2738
rradius 35.0184
rwrist 3.10911
rhand -15.9632 10.261
rfingers 7.12502
rthumb 10.2357 -19.4699
lclavicle -1.07095e-014 1.19271e-015
lhumerus -36.5181 8.11803 81.2214
lradius 30.4419
lwrist -7.13612
lhand -17.7243 25.6341
lfingers 7.12502
lthumb 8.53644 55.4416
rfemur 1.38411 -1.52723 28.6307
rtibia 22.0071
rfoot -16.5884 0.482436
rtoes 18.5272
lfemur -20.3594 -1.55028 -14.8632
ltibia 32.7851
lfoot -4.36779 3.40322
ltoes -12.4308
425
root -7.93886 17.8352 11.1004 -71.5531 -93.098 68.5344
lowerback 11.9167 2.35169 3.93783
upperback 1.02027 3.64283 0.950095
thorax -5.42112 1.68631 -1.80701
lowerneck -20.8005 -6.16174 -12.1024
upperneck 27.6742 -7.31575 7.38249
head 13.5853 -3.62617 3.61474
rclavicle -6.96989e-015 -3.57812e-015
rhumerus -30.4174 -9.03966 -81.3435
rradius 34.9042
rwrist 2.98033
rhand -15.5561 10.3336
rfingers 7.12502
rthumb 10.6284 -19.3776
lclavicle -6.96989e-015 -3.57812e-015
lhumerus -36.4286 7.98909 81.3978
lradius 30.4506
lwrist -6.8494
lhand -17.9083 25.6973
lfingers 7.12502
lthumb 8.35882 55.5119
rfemur 1.49473 -1.66356 28.4842
rtibia 21.9182
rfoot -16.7637 0.430167
rtoes 17.0725
lfemur -20.54 -1.70873 -14.9545
ltibia 30.2953
lfoot -4.1142 3.60863
ltoes -13.4292
426
root -8.05776 17.8241 11.1078 -67.2205 -92.9838 64.3181
lowerback 11.8273 2.4192 3.78047
upperback 0.994064 3.70642 0.879421
thorax -5.40058 1.72179 -1.79919
lowerneck -20.8286 -6.18893 -12.0772
upperneck 27.6371 -7.33932 7.33269
head 13.5751 -3.63816 3.58464
rclavicle -1.25607e-014 4.96962e-015
rhumerus -30.3712 -8.79257 -81.3683
rradius 34.8824
rwrist 2.77347
rhand -15.4826 10.3386
rfingers 7.12502
rthumb 10.6993 -19.369
lclavicle -1.25607e-014 4.96962e-015
lhumerus -36.3783 7.98087 81.5479
lradius 30.5192
lwrist -6.78634
lhand -17.9332 25.6433
lfingers 7.12502
lthumb 8.33477 55.4589
rfemur 1.84972 -1.87621 28.2153
rtibia 21.8342
rfoot -17.0261 0.534685
rtoes 15.4896
lfemur -20.4848 -1.7799 -15.1687
ltibia 27.8353
lfoot -4.07598 3.79589
ltoes -16.2625
427
root -8.18367 17.8075 11.1163 -63.3949 -93.0163 60.4875
lowerback 11.7572 2.47936 3.80251
upperback 1.03864 3.78032 0.815826
thorax -5.30456 1.75987 -1.88417
lowerneck -20.8738 -6.15271 -11.9125
upperneck 27.5085 -7.28603 7.21866
head 13.5105 -3.60739 3.51806
rclavicle 4.86277e-014 4.96962e-016
rhumerus -30.2197 -8.84492 -81.3742
rradius 34.7285
rwrist 2.67166
rhand -15.8864 10.2109
rfingers 7.12502
rthumb 10.3098 -19.5164
lclavicle 4.86277e-014 4.96962e-016
lhumerus -36.2796 7.92244 81.6564
lradius 30.569
lwrist -6.81003
lhand -17.9569 25.6893
lfingers 7.12502
lthumb 8.31197 55.5058
rfemur 2.35768 -1.86164 28.0691
rtibia 21.7273
rfoot -17.277 0.596301
rtoes 15.0129
lfemur -20.2648 -1.81903 -15.2814
ltibia 25.4043
lfoot -4.02084 3.9789
ltoes -20.2481
428
root -8.30235 17.7916 11.1158 -63.0913 -93.1577 60.3099
lowerback 11.669 2.4869 3.90027
upperback 1.00091 3.80084 0.808932
thorax -5.28727 1.76828 -1.9455
lowerneck -20.8589 -6.10379 -11.7128
upperneck 27.3915 -7.22106 7.05248
head 13.4332 -3.57714 3.42809
rclavicle 1.13804e-014 -7.95139e-016
rhumerus -30.1121 -8.98027 -81.3955
rradius 34.5885
rwrist 2.73462
rhand -16.0613 10.2412
rfingers 7.12502
rthumb 10.141 -19.4944
lclavicle 1.13804e-014 -7.95139e-016
lhumerus -36.2116 7.77156 81.7465
lradius 30.6162
lwrist -6.72531
lhand -18.0126 25.789
lfingers 7.12502
lthumb 8.25815 55.6076
rfemur 2.7353 -1.80835 28.1924
rtibia 21.5677
rfoot -17.5149 0.631051
rtoes 15.3283
lfemur -20.2246 -1.83778 -15.1001
ltibia 23.022
lfoot -3.95564 3.78861
ltoes -21.4492
429
root -8.41895 17.7841 11.1099 -62.1765 -93.2503 59.6303
lowerback 11.4874 2.48357 3.87192
upperback 0.942398 3.78708 0.779719
thorax -5.24843 1.7635 -1.95027
lowerneck -20.9389 -6.08586 -11.6589
upperneck 27.3717 -7.20442 7.06576
head 13.4375 -3.5597 3.42616
rclavicle 1.4797e-014 2.28602e-015
rhumerus -29.9756 -9.15314 -81.4649
rradius 34.424
rwrist 3.0772
rhand -16.0148 10.3918
rfingers 7.12502
rthumb 10.1858 -19.3416
lclavicle 1.4797e-014 2.28602e-015
lhumerus -36.1306 7.65825 81.7555
lradius 30.6226
lwrist -6.55401
lhand -17.9641 25.8206
lfingers 7.12502
lthumb 8.30496 55.6374
rfemur 3.06795 -1.5992 28.317
rtibia 21.2771
rfoot -17.6626 0.520994
rtoes 15.6754
lfemur -20.3233 -1.87365 -14.9004
ltibia 20.7771
lfoot -4.02728 3.51
ltoes -21.3077
430
root -8.54116 17.7839 11.1127 -61.4826 -93.3266 59.0514
lowerback 11.3494 2.44945 3.91812
upperback 0.933913 3.74158 0.77018
thorax -5.17946 1.74213 -1.97211
lowerneck -21.097 -6.05722 -11.6196
upperneck 27.461 -7.15477 7.04217
head 13.4989 -3.5348 3.41907
rclavicle -3.19236e-014 6.75868e-015
rhumerus -29.8489 -9.27389 -81.454
rradius 34.2681
rwrist 3.4972
rhand -15.9287 10.3787
rfingers 7.12502
rthumb 10.269 -19.3507
lclavicle -3.19236e-014 6.75868e-015
lhumerus -36.0318 7.67943 81.8013
lradius 30.5469
lwrist -6.5111
lhand -18.1587 25.9103
lfingers 7.12502
lthumb 8.11722 55.7344
rfemur 3.59242 -1.60956 28.3395
rtibia 20.8653
rfoot -17.7389 0.501406
rtoes 14.6575
lfemur -20.303 -2.44778 -14.6215
ltibia 18.7272
lfoot -4.24658 3.59177
ltoes -19.3499
